<?xml version="1.0" encoding="utf-8"?>
<!-- Generator: Adobe Illustrator 15.0.0, SVG Export Plug-In . SVG Version: 6.00 Build 0)  -->
<!DOCTYPE svg PUBLIC "-//W3C//DTD SVG 1.1//EN" "http://www.w3.org/Graphics/SVG/1.1/DTD/svg11.dtd">
<svg version="1.1" id="Capa_1" xmlns="http://www.w3.org/2000/svg" xmlns:xlink="http://www.w3.org/1999/xlink" x="0px" y="0px"
	 width="792px" height="612px" viewBox="0 0 792 612" enable-background="new 0 0 792 612" xml:space="preserve">
<g>
	<g>
		<path d="M113.198,377.973c-9.97-9.97-9.97-26.133,0-36.102l107.165-107.163c9.967-9.969,26.13-9.969,36.099,0l0,0
			c9.969,9.969,9.969,26.132,0,36.102L149.3,377.973C139.33,387.942,123.168,387.942,113.198,377.973L113.198,377.973z"/>
		<path d="M59.616,324.391c-9.97-9.968-9.97-26.132,0-36.1L166.78,181.126c9.967-9.969,26.13-9.969,36.099,0l0,0
			c9.972,9.97,9.972,26.132,0,36.102L95.717,324.391C85.748,334.359,69.586,334.359,59.616,324.391L59.616,324.391z"/>
		<path d="M166.78,431.555c-9.97-9.97-9.97-26.132,0-36.102l107.163-107.163c9.97-9.969,26.132-9.969,36.102,0l0,0
			c9.969,9.968,9.969,26.132,0,36.1L202.879,431.555C192.911,441.524,176.748,441.524,166.78,431.555L166.78,431.555z"/>
	</g>
	<g>
		<g>
			<path d="M512.563,367.278l20.632-38.996h25.695l-32.648,54.565l34.538,55.472h-26.678l-21.237-39.677l-21.236,39.677h-25.771
				l33.479-55.472l-32.646-54.565h25.544L512.563,367.278z"/>
			<path d="M610.96,378.993h0.453l24.034-50.711h24.183l-37.712,71.342v38.695h-22.067V398.49l-37.106-70.208h24.184L610.96,378.993
				z"/>
			<path d="M692.278,421.391h50.483v16.929h-76.48v-11.488l48.972-81.545h-48.896v-17.004h75.121v11.034L692.278,421.391z"/>
		</g>
		<g>
			<path d="M420.664,284.756c0-3.802-1.449-6.901-4.343-9.303c-2.897-2.397-8.382-4.502-16.454-6.316
				c-11.175-2.4-19.759-5.761-25.757-10.092c-5.996-4.329-8.994-10.123-8.994-17.375c0-7.721,3.29-14.332,9.873-19.832
				c6.58-5.496,15.106-8.249,25.578-8.249c10.766,0,19.481,2.927,26.151,8.775c6.669,5.851,9.858,12.667,9.564,20.447l-0.175,0.525
				H419.61c0-4.091-1.799-7.809-5.397-11.145c-3.597-3.334-8.146-5-13.646-5c-6.084,0-10.632,1.375-13.646,4.125
				c-3.01,2.752-4.517,6.025-4.517,9.827c0,3.746,1.301,6.64,3.904,8.687c2.603,2.051,7.971,3.922,16.101,5.618
				c11.644,2.458,20.477,5.937,26.502,10.442c6.025,4.507,9.039,10.387,9.039,17.638c0,8.425-3.408,15.301-10.223,20.622
				c-6.814,5.324-15.724,7.986-26.721,7.986c-12.11,0-21.647-3.071-28.608-9.214c-6.961-6.143-10.266-13.307-9.916-21.499
				l0.177-0.527h16.496c0.292,6.143,2.574,10.633,6.846,13.471c4.27,2.838,9.27,4.255,15.005,4.255
				c6.141,0,10.954-1.301,14.436-3.904C418.924,292.116,420.664,288.792,420.664,284.756z"/>
			<path d="M517.805,312.135c-0.584-2.864-1.037-7.239-1.358-9.435c-0.323-2.194-0.513-4.398-0.573-6.624
				c-3.216,4.562-7.413,8.38-12.59,11.452c-5.179,3.069-10.75,4.606-16.719,4.606c-9.886,0-17.417-2.53-22.595-7.591
				c-5.179-5.058-7.768-12.034-7.768-20.928c0-9.069,3.673-16.159,11.013-21.281c7.344-5.118,17.304-7.679,29.881-7.679h18.777
				v-9.388c0-5.557-1.695-9.959-5.089-13.207c-3.393-3.247-8.189-4.87-14.391-4.87c-5.615,0-10.15,1.404-13.602,4.21
				c-3.451,2.809-5.179,6.174-5.179,10.092l-16.408,0.176l-0.176-0.527c-0.41-6.9,2.824-13.217,9.696-18.955
				c6.875-5.733,15.754-8.599,26.634-8.599c10.763,0,19.423,2.734,25.974,8.205c6.553,5.473,9.827,13.353,9.827,23.65v45.718
				c0,3.393,0.18,6.668,0.529,9.829c0.351,3.158,0.993,8.104,1.929,11.144H517.805z M489.11,297.656
				c6.259,0,11.903-1.608,16.936-4.826c5.031-3.216,8.308-6.901,9.827-11.057v-15.444h-19.392c-6.963,0-12.534,1.755-16.717,5.265
				c-4.183,3.51-6.274,7.635-6.274,12.373c0,4.213,1.316,7.547,3.949,10.006C480.071,296.428,483.962,297.656,489.11,297.656z"/>
			<path d="M627.582,192.442v22.903h17.989v12.812h-17.989v57.653c0,4.446,0.922,7.578,2.765,9.388
				c1.844,1.813,4.285,2.721,7.327,2.721c0.994,0,2.106-0.13,3.336-0.395c1.228-0.262,2.252-0.537,3.071-0.833l2.367,11.849
				c-1.287,1.051-3.187,1.914-5.703,2.587c-2.515,0.673-5.001,1.009-7.459,1.009c-7.021,0-12.606-2.118-16.761-6.361
				c-4.153-4.243-6.23-10.895-6.23-19.964v-57.653h-15.092v-12.812h15.092v-22.903H627.582z"/>
			<path d="M719.283,284.756c0-3.802-1.446-6.901-4.344-9.303c-2.896-2.397-8.381-4.502-16.454-6.316
				c-11.173-2.4-19.759-5.761-25.754-10.092c-5.996-4.329-8.995-10.123-8.995-17.375c0-7.721,3.289-14.332,9.873-19.832
				c6.581-5.496,15.105-8.249,25.58-8.249c10.763,0,19.481,2.927,26.15,8.775c6.668,5.851,9.856,12.667,9.563,20.447l-0.176,0.525
				h-16.496c0-4.091-1.8-7.809-5.397-11.145c-3.599-3.334-8.146-5-13.645-5c-6.087,0-10.634,1.375-13.646,4.125
				c-3.014,2.752-4.52,6.025-4.52,9.827c0,3.746,1.3,6.64,3.904,8.687c2.603,2.051,7.971,3.922,16.104,5.618
				c11.641,2.458,20.475,5.937,26.499,10.442c6.026,4.507,9.04,10.387,9.04,17.638c0,8.425-3.407,15.301-10.224,20.622
				c-6.814,5.324-15.723,7.986-26.72,7.986c-12.109,0-21.646-3.071-28.607-9.214c-6.962-6.143-10.268-13.307-9.917-21.499
				l0.177-0.527h16.498c0.292,6.143,2.571,10.633,6.844,13.471c4.271,2.838,9.273,4.255,15.006,4.255
				c6.143,0,10.954-1.301,14.435-3.904C717.543,292.116,719.283,288.792,719.283,284.756z"/>
			<g>
				<path d="M576.949,312.135h-17.285v-96.79h17.285V312.135z"/>
				<path d="M576.949,182.393c0,4.773-3.87,8.644-8.643,8.644l0,0c-4.773,0-8.643-3.871-8.643-8.644v-0.351
					c0-4.772,3.869-8.644,8.643-8.644l0,0c4.772,0,8.643,3.871,8.643,8.644V182.393z"/>
			</g>
		</g>
	</g>
</g>
</svg>
